<mxfile host="app.diagrams.net" modified="2023-09-20T19:07:16.993Z" agent="Mozilla/5.0 (Windows NT 10.0; Win64; x64; rv:109.0) Gecko/20100101 Firefox/115.0" version="21.6.9" etag="QRM9CGl9N6yyr9sU4DKD" type="github">
  <diagram name="Seite-1" id="n50YsQVgjFoi5HFnZvC2">
    <mxGraphModel>
      <root>
        <mxCell id="0" />
        <mxCell id="1" parent="0" />
      </root>
    </mxGraphModel>
  </diagram>
</mxfile>
